<svg width="127" height="97" viewBox="0 0 127 97" fill="none" xmlns="http://www.w3.org/2000/svg">
<path fill-rule="evenodd" clip-rule="evenodd" d="M47.992 5.80895C24.617 9.01795 5.15402 11.6659 4.74202 11.6919C2.39602 11.8419 -0.00698474 16.0479 1.52565e-05 19.9899C0.0120153 26.8179 6.66602 74.2619 7.94602 76.6549C9.54102 79.6339 15.992 82.1079 15.992 79.7399C15.992 79.1899 15.367 78.7399 14.603 78.7399C13.839 78.7399 12.262 77.9529 11.098 76.9899C9.23902 75.4519 8.55901 72.0839 5.49501 49.2399C1.63701 20.4799 1.38302 16.4899 3.30902 14.8909C5.11302 13.3949 96.87 1.24195 100.151 2.06495C103.408 2.88195 103.749 3.77994 105.213 15.3709C105.864 20.5239 106.756 24.7399 107.194 24.7399C109.537 24.7399 106.501 5.12095 103.675 1.98995C100.789 -1.20605 97.399 -0.973054 47.992 5.80895ZM22.313 27.9289C18.463 29.7899 17.932 33.1439 18.22 53.7509L18.492 73.2399H71.992H125.492L125.763 52.9339L126.034 32.6279L123.09 29.6839L120.146 26.7399L72.319 26.8079C41.002 26.8519 23.74 27.2389 22.313 27.9289ZM70.492 41.7399C70.128 42.3289 64.148 42.7399 55.933 42.7399C47.306 42.7399 41.992 42.3589 41.992 41.7399C41.992 41.1189 47.512 40.7399 56.551 40.7399C66.002 40.7399 70.893 41.0909 70.492 41.7399ZM93.492 54.7399C93.898 55.3969 85.169 55.7399 68.051 55.7399C51.345 55.7399 41.992 55.3809 41.992 54.7399C41.992 54.0999 51.139 53.7399 67.433 53.7399C83.315 53.7399 93.106 54.1159 93.492 54.7399ZM108.992 54.7399C108.992 55.2899 107.192 55.7399 104.992 55.7399C102.792 55.7399 100.992 55.2899 100.992 54.7399C100.992 54.1899 102.792 53.7399 104.992 53.7399C107.192 53.7399 108.992 54.1899 108.992 54.7399ZM18.667 82.3979C17.018 84.0479 18.068 90.7169 20.405 93.4339L22.819 96.2399H71.992H121.165L123.63 93.3739C125.555 91.1359 126.029 89.6019 125.794 86.3739L125.492 82.2399L72.417 81.9809C43.226 81.8389 19.039 82.0269 18.667 82.3979Z" fill="#556DAC"/>
</svg>
