<svg width="490" height="97" viewBox="0 0 490 97" fill="none" xmlns="http://www.w3.org/2000/svg">
<path fill-rule="evenodd" clip-rule="evenodd" d="M47.992 5.80895C24.617 9.01795 5.15402 11.6659 4.74202 11.6919C2.39602 11.8419 -0.00698474 16.0479 1.52565e-05 19.9899C0.0120153 26.8179 6.66602 74.2619 7.94602 76.6549C9.54102 79.6339 15.992 82.1079 15.992 79.7399C15.992 79.1899 15.367 78.7399 14.603 78.7399C13.839 78.7399 12.262 77.9529 11.098 76.9899C9.23902 75.4519 8.55901 72.0839 5.49501 49.2399C1.63701 20.4799 1.38302 16.4899 3.30902 14.8909C5.11302 13.3949 96.87 1.24195 100.151 2.06495C103.408 2.88195 103.749 3.77994 105.213 15.3709C105.864 20.5239 106.756 24.7399 107.194 24.7399C109.537 24.7399 106.501 5.12095 103.675 1.98995C100.789 -1.20605 97.399 -0.973054 47.992 5.80895ZM280.563 24.3109C278.183 26.6919 278.618 30.4489 281.492 32.3319C283.808 33.8489 284.176 33.8489 286.492 32.3319C289.644 30.2659 289.778 26.4039 286.769 24.2969C283.963 22.3309 282.541 22.3339 280.563 24.3109ZM181.677 24.7739C173.22 26.2649 170.128 31.3179 170.07 43.7399C170.024 53.9039 172.243 58.8229 177.893 61.0839C188.395 65.2859 199.912 61.3879 201.576 53.0709C202.154 50.1799 201.997 50.0019 198.338 49.3969C192.338 48.4059 191.263 48.5949 190.702 50.7399C190.309 52.2439 189.338 52.7399 186.786 52.7399C184.919 52.7399 182.852 52.1999 182.192 51.5399C180.346 49.6939 180.631 37.2439 182.563 35.3109C184.847 33.0269 188.697 33.3599 190.42 35.9899C191.687 37.9249 192.599 38.1919 196.943 37.8929C202.613 37.5039 203.284 36.139 200.475 30.7069C197.908 25.7429 190.121 23.2849 181.677 24.7739ZM264.989 29.4899L264.986 35.2399L260.485 35.2669C252.306 35.3149 248.299 42.9019 250.436 54.2959C251.985 62.5519 261.215 65.7879 266.679 59.9899C268.861 57.6749 269.085 57.5959 268.096 59.4899C266.971 61.6459 267.091 61.7399 270.957 61.7399H274.992V42.7399V23.7399H269.992H264.992L264.989 29.4899ZM311.992 43.1919V61.7399H317.621H323.25L322.665 54.4899L322.079 47.2399L324.314 54.2399L326.549 61.2399L331.608 61.5369L336.666 61.8329L338.763 55.0369L340.861 48.2399L340.926 54.9899L340.992 61.7399H345.992H350.992V43.1919V24.6449L344.849 24.9419L338.707 25.2399L335.211 36.2399L331.716 47.2399L328.024 36.2399L324.332 25.2399L318.162 24.9419L311.992 24.6449V43.1919ZM22.313 27.9289C18.463 29.7899 17.932 33.1439 18.22 53.7509L18.492 73.2399H71.992H125.492L125.763 52.9339L126.034 32.6279L123.09 29.6839L120.146 26.7399L72.319 26.8079C41.002 26.8519 23.74 27.2389 22.313 27.9289ZM293.992 33.2399C293.992 34.7959 293.425 35.7399 292.492 35.7399C290.555 35.7399 290.451 41.3259 292.367 42.4399C293.22 42.9359 293.912 45.6689 294.191 49.6389C294.589 55.2969 295.011 56.3669 297.832 58.8889C300.21 61.0129 302.04 61.7399 305.008 61.7399H308.992V57.4769C308.992 54.0159 308.569 53.0289 306.742 52.2269C305.005 51.4649 304.422 50.2709 304.185 46.9899C303.897 43.0179 304.044 42.7399 306.435 42.7399C308.691 42.7399 308.992 42.3279 308.992 39.2399C308.992 36.1729 308.682 35.7399 306.492 35.7399C304.492 35.7399 303.992 35.2399 303.992 33.2399C303.992 30.9069 303.659 30.7399 298.992 30.7399C294.325 30.7399 293.992 30.9069 293.992 33.2399ZM213.316 37.4899C210.93 40.0339 210.788 40.0709 211.431 37.9899C212.063 35.9469 211.798 35.7399 208.559 35.7399H204.992V48.7399V61.7399H209.953H214.914L215.203 52.9899L215.492 44.2399L218.742 43.9269C221.873 43.6249 221.992 43.4509 221.992 39.1769C221.992 34.8979 221.883 34.7399 218.944 34.7399C216.912 34.7399 215.037 35.6559 213.316 37.4899ZM228.992 36.0189C220.803 40.1109 221.209 58.5909 229.558 61.7649C234.478 63.6359 240.591 62.9489 243.915 60.1509C245.607 58.7269 246.992 57.1289 246.992 56.5999C246.992 55.0779 240.342 52.7019 236.868 52.9839C235.096 53.1279 233.522 52.7109 233.283 52.0349C232.98 51.1819 234.994 50.7439 240.174 50.5349L247.492 50.2399L247.308 46.0479C247.208 43.7429 246.609 40.8929 245.978 39.7139C243.691 35.4399 234.257 33.3879 228.992 36.0189ZM362.013 35.8559C359.158 36.9949 355.992 39.6529 355.992 40.9099C355.992 41.3829 357.404 42.6279 359.129 43.6769C361.532 45.1389 362.672 45.3319 363.997 44.5049C365.891 43.3219 368.992 44.0689 368.992 45.7089C368.992 46.2809 366.746 46.7399 363.947 46.7399C355.414 46.7399 351.336 53.0939 356.035 59.0679C359.844 63.9099 368.745 63.8569 371.47 58.9769L372.998 56.2399L372.387 58.9899C371.807 61.5949 371.966 61.7399 375.384 61.7399H378.992V52.1439C378.992 40.7419 377.511 37.2569 372.018 35.7309C367.708 34.5329 365.251 34.5639 362.013 35.8559ZM390.738 37.9899C388.732 40.1229 388.079 40.4889 388.837 39.0559C390.496 35.9189 390.369 35.7399 386.492 35.7399H382.992V48.7399V61.7399H387.992H392.992V52.6669C392.992 44.5649 393.179 43.6289 394.742 43.9279C396.222 44.2109 396.537 45.6099 396.781 53.0009L397.07 61.7399H402.031H406.992V51.7869C406.992 40.8649 406.017 37.5279 402.335 35.8499C397.82 33.7929 394.027 34.4929 390.738 37.9899ZM417.013 35.8559C414.25 36.9579 410.992 39.6409 410.992 40.8129C410.992 42.2979 418.34 46.1969 418.76 44.9359C419.35 43.1649 423.992 43.4349 423.992 45.2399C423.992 46.3689 422.782 46.7399 419.103 46.7399C413.099 46.7399 409.908 48.9839 409.786 53.2899C409.614 59.3249 413.343 62.7399 420.103 62.7399C421.958 62.7399 424.038 61.7849 425.615 60.2079C427.844 57.9789 428.07 57.9189 427.502 59.7079C426.936 61.4909 427.293 61.7399 430.425 61.7399H433.992V51.7049C433.992 44.2809 433.585 41.0479 432.426 39.2799C429.803 35.2769 422.52 33.6589 417.013 35.8559ZM441.823 36.2699C438.358 38.1509 436.64 43.4759 437.224 50.5199C437.612 55.1979 438.185 56.5239 440.854 58.9079C444.517 62.1809 449.197 62.6379 453.019 60.0949L455.492 58.4509L453.354 60.7059C451.951 62.1849 449.597 63.1429 446.507 63.4909C441.895 64.0109 441.811 64.0829 442.395 67.0059C442.723 68.6469 442.992 70.6089 442.992 71.3649C442.992 73.1779 448.993 73.1839 453.321 71.3759C455.116 70.6259 457.802 68.5659 459.289 66.7989C461.943 63.6449 461.992 63.3349 461.992 49.6629V35.7399H457.957C454.176 35.7399 453.992 35.8719 455.038 37.8259C455.652 38.9729 455.934 40.1319 455.664 40.4009C455.395 40.6699 454.9 40.0249 454.564 38.9669C453.332 35.0859 446.62 33.6649 441.823 36.2699ZM470.992 36.0189C462.803 40.1109 463.209 58.5909 471.558 61.7649C476.478 63.6359 482.591 62.9489 485.915 60.1509C487.607 58.7269 488.992 57.1289 488.992 56.5999C488.992 55.0779 482.342 52.7019 478.868 52.9839C477.096 53.1279 475.522 52.7109 475.283 52.0349C474.98 51.1819 476.994 50.7439 482.174 50.5349L489.492 50.2399L489.308 46.0479C489.208 43.7429 488.609 40.8929 487.978 39.7139C485.691 35.4399 476.257 33.3879 470.992 36.0189ZM278.992 48.7399V61.7399H283.992H288.992V48.7399V35.7399H283.992H278.992V48.7399ZM70.492 41.7399C70.128 42.3289 64.148 42.7399 55.933 42.7399C47.306 42.7399 41.992 42.3589 41.992 41.7399C41.992 41.1189 47.512 40.7399 56.551 40.7399C66.002 40.7399 70.893 41.0909 70.492 41.7399ZM237.742 45.4899C238.004 46.2749 237.197 46.7399 235.575 46.7399C233.051 46.7399 232.287 45.7779 233.693 44.3719C234.722 43.3429 237.261 44.0439 237.742 45.4899ZM264.492 48.7399C264.492 52.2049 264.098 53.2889 262.742 53.5499C261.258 53.8349 260.992 53.1029 260.992 48.7399C260.992 44.3769 261.258 43.6449 262.742 43.9299C264.098 44.1909 264.492 45.2749 264.492 48.7399ZM451.492 48.7399C451.492 52.2049 451.098 53.2889 449.742 53.5499C448.258 53.8349 447.992 53.1029 447.992 48.7399C447.992 44.3769 448.258 43.6449 449.742 43.9299C451.098 44.1909 451.492 45.2749 451.492 48.7399ZM479.742 45.4899C480.004 46.2749 479.197 46.7399 477.575 46.7399C475.051 46.7399 474.287 45.7779 475.693 44.3719C476.722 43.3429 479.261 44.0439 479.742 45.4899ZM368.992 51.7399C368.992 53.0729 368.325 53.7399 366.992 53.7399C365.659 53.7399 364.992 53.0729 364.992 51.7399C364.992 50.4069 365.659 49.7399 366.992 49.7399C368.325 49.7399 368.992 50.4069 368.992 51.7399ZM423.992 51.7399C423.992 53.0729 423.325 53.7399 421.992 53.7399C420.659 53.7399 419.992 53.0729 419.992 51.7399C419.992 50.4069 420.659 49.7399 421.992 49.7399C423.325 49.7399 423.992 50.4069 423.992 51.7399ZM93.492 54.7399C93.898 55.3969 85.169 55.7399 68.051 55.7399C51.345 55.7399 41.992 55.3809 41.992 54.7399C41.992 54.0999 51.139 53.7399 67.433 53.7399C83.315 53.7399 93.106 54.1159 93.492 54.7399ZM108.992 54.7399C108.992 55.2899 107.192 55.7399 104.992 55.7399C102.792 55.7399 100.992 55.2899 100.992 54.7399C100.992 54.1899 102.792 53.7399 104.992 53.7399C107.192 53.7399 108.992 54.1899 108.992 54.7399ZM18.667 82.3979C17.018 84.048 18.068 90.7169 20.405 93.4339L22.819 96.2399H71.992H121.165L123.63 93.3739C125.555 91.1359 126.029 89.6019 125.794 86.3739L125.492 82.2399L72.417 81.9809C43.226 81.8389 19.039 82.0269 18.667 82.3979Z" fill="white"/>
</svg>
